<?xml version="1.0" encoding="UTF-8" standalone="no"?><svg xmlns="http://www.w3.org/2000/svg" xmlns:xlink="http://www.w3.org/1999/xlink" contentScriptType="application/ecmascript" contentStyleType="text/css" height="276px" preserveAspectRatio="none" style="width:278px;height:276px;" version="1.1" viewBox="0 0 278 276" width="278px" zoomAndPan="magnify"><defs><filter height="300%" id="fqiu9kr6b73ot" width="300%" x="-1" y="-1"><feGaussianBlur result="blurOut" stdDeviation="2.0"/><feColorMatrix in="blurOut" result="blurOut2" type="matrix" values="0 0 0 0 0 0 0 0 0 0 0 0 0 0 0 0 0 0 .4 0"/><feOffset dx="4.0" dy="4.0" in="blurOut2" result="blurOut3"/><feBlend in="SourceGraphic" in2="blurOut3" mode="normal"/></filter></defs><g><text fill="#888888" font-family="sans-serif" font-size="10" lengthAdjust="spacingAndGlyphs" textLength="83" x="183" y="19.2822">Product Creation</text><ellipse cx="150.25" cy="31.6406" fill="#000000" filter="url(#fqiu9kr6b73ot)" rx="10" ry="10" style="stroke: none; stroke-width: 1.0;"/><rect fill="#FEFECE" filter="url(#fqiu9kr6b73ot)" height="33.9688" rx="12.5" ry="12.5" style="stroke: #A80036; stroke-width: 1.5;" width="97" x="101.75" y="61.6406"/><text fill="#000000" font-family="sans-serif" font-size="12" lengthAdjust="spacingAndGlyphs" textLength="77" x="111.75" y="82.7793">Add Product</text><polygon fill="#FEFECE" filter="url(#fqiu9kr6b73ot)" points="127.75,115.6094,172.75,115.6094,184.75,127.6094,172.75,139.6094,127.75,139.6094,115.75,127.6094,127.75,115.6094" style="stroke: #A80036; stroke-width: 1.5;"/><text fill="#000000" font-family="sans-serif" font-size="11" lengthAdjust="spacingAndGlyphs" textLength="45" x="127.75" y="131.4175">Validate</text><text fill="#000000" font-family="sans-serif" font-size="11" lengthAdjust="spacingAndGlyphs" textLength="28" x="87.75" y="125.0151">pass</text><text fill="#000000" font-family="sans-serif" font-size="11" lengthAdjust="spacingAndGlyphs" textLength="31" x="184.75" y="125.0151">failed</text><rect fill="#FEFECE" filter="url(#fqiu9kr6b73ot)" height="33.9688" rx="12.5" ry="12.5" style="stroke: #A80036; stroke-width: 1.5;" width="142" x="10" y="149.6094"/><text fill="#000000" font-family="sans-serif" font-size="12" lengthAdjust="spacingAndGlyphs" textLength="122" x="20" y="170.748">Show Added record</text><rect fill="#FEFECE" filter="url(#fqiu9kr6b73ot)" height="33.9688" rx="12.5" ry="12.5" style="stroke: #A80036; stroke-width: 1.5;" width="95" x="172" y="149.6094"/><text fill="#000000" font-family="sans-serif" font-size="12" lengthAdjust="spacingAndGlyphs" textLength="75" x="182" y="170.748">Show errors</text><ellipse cx="219.5" cy="213.5781" fill="#FFFFFF" filter="url(#fqiu9kr6b73ot)" rx="10" ry="10" style="stroke: #000000; stroke-width: 1.5;"/><line style="stroke: #000000; stroke-width: 2.5;" x1="213.3128" x2="225.6872" y1="207.3909" y2="219.7653"/><line style="stroke: #000000; stroke-width: 2.5;" x1="225.6872" x2="213.3128" y1="207.3909" y2="219.7653"/><ellipse cx="150.25" cy="254.5781" fill="#FFFFFF" filter="url(#fqiu9kr6b73ot)" rx="11" ry="11" style="stroke: #000000; stroke-width: 1.0;"/><ellipse cx="150.25" cy="254.5781" fill="#000000" rx="6" ry="6" style="stroke: #7F7F7F; stroke-width: 1.0;"/><line style="stroke: #A80036; stroke-width: 1.5;" x1="150.25" x2="150.25" y1="41.6406" y2="61.6406"/><polygon fill="#A80036" points="146.25,51.6406,150.25,61.6406,154.25,51.6406,150.25,55.6406" style="stroke: #A80036; stroke-width: 1.0;"/><line style="stroke: #A80036; stroke-width: 1.5;" x1="219.5" x2="219.5" y1="183.5781" y2="203.5781"/><polygon fill="#A80036" points="215.5,193.5781,219.5,203.5781,223.5,193.5781,219.5,197.5781" style="stroke: #A80036; stroke-width: 1.0;"/><line style="stroke: #A80036; stroke-width: 1.5;" x1="115.75" x2="81" y1="127.6094" y2="127.6094"/><line style="stroke: #A80036; stroke-width: 1.5;" x1="81" x2="81" y1="127.6094" y2="149.6094"/><polygon fill="#A80036" points="77,139.6094,81,149.6094,85,139.6094,81,143.6094" style="stroke: #A80036; stroke-width: 1.0;"/><line style="stroke: #A80036; stroke-width: 1.5;" x1="184.75" x2="219.5" y1="127.6094" y2="127.6094"/><line style="stroke: #A80036; stroke-width: 1.5;" x1="219.5" x2="219.5" y1="127.6094" y2="149.6094"/><polygon fill="#A80036" points="215.5,139.6094,219.5,149.6094,223.5,139.6094,219.5,143.6094" style="stroke: #A80036; stroke-width: 1.0;"/><line style="stroke: #A80036; stroke-width: 1.5;" x1="81" x2="81" y1="183.5781" y2="228.5781"/><line style="stroke: #A80036; stroke-width: 1.5;" x1="81" x2="150.25" y1="228.5781" y2="228.5781"/><line style="stroke: #A80036; stroke-width: 1.5;" x1="150.25" x2="150.25" y1="228.5781" y2="243.5781"/><polygon fill="#A80036" points="146.25,233.5781,150.25,243.5781,154.25,233.5781,150.25,237.5781" style="stroke: #A80036; stroke-width: 1.0;"/><line style="stroke: #A80036; stroke-width: 1.5;" x1="150.25" x2="150.25" y1="95.6094" y2="115.6094"/><polygon fill="#A80036" points="146.25,105.6094,150.25,115.6094,154.25,105.6094,150.25,109.6094" style="stroke: #A80036; stroke-width: 1.0;"/><!--MD5=[b2e1b6a01a90ce1ca52af1d8737b17d8]
@startuml
start
header Product Creation
:Add Product;

if (Validate) then (pass)
  :Show Added record;
  
else (failed)
  :Show errors;
  
  end
endif

stop
@enduml

PlantUML version 1.2019.11(Sun Sep 22 10:02:15 UTC 2019)
(GPL source distribution)
Java Runtime: OpenJDK Runtime Environment
JVM: OpenJDK 64-Bit Server VM
Java Version: 1.8.0_222-heroku-b10
Operating System: Linux
Default Encoding: UTF-8
Language: en
Country: US
--></g></svg>