<?xml version="1.0" encoding="UTF-8" standalone="no"?><svg xmlns="http://www.w3.org/2000/svg" xmlns:xlink="http://www.w3.org/1999/xlink" contentScriptType="application/ecmascript" contentStyleType="text/css" height="276px" preserveAspectRatio="none" style="width:264px;height:276px;" version="1.1" viewBox="0 0 264 276" width="264px" zoomAndPan="magnify"><defs><filter height="300%" id="fc5ckz43p58qv" width="300%" x="-1" y="-1"><feGaussianBlur result="blurOut" stdDeviation="2.0"/><feColorMatrix in="blurOut" result="blurOut2" type="matrix" values="0 0 0 0 0 0 0 0 0 0 0 0 0 0 0 0 0 0 .4 0"/><feOffset dx="4.0" dy="4.0" in="blurOut2" result="blurOut3"/><feBlend in="SourceGraphic" in2="blurOut3" mode="normal"/></filter></defs><g><text fill="#888888" font-family="sans-serif" font-size="10" lengthAdjust="spacingAndGlyphs" textLength="73" x="179" y="19.2822">Delete Product</text><ellipse cx="111.75" cy="31.6406" fill="#000000" filter="url(#fc5ckz43p58qv)" rx="10" ry="10" style="stroke: none; stroke-width: 1.0;"/><rect fill="#FEFECE" filter="url(#fc5ckz43p58qv)" height="33.9688" rx="12.5" ry="12.5" style="stroke: #A80036; stroke-width: 1.5;" width="124" x="49.75" y="61.6406"/><text fill="#000000" font-family="sans-serif" font-size="12" lengthAdjust="spacingAndGlyphs" textLength="104" x="59.75" y="82.7793">Retrieve Product</text><polygon fill="#FEFECE" filter="url(#fc5ckz43p58qv)" points="78.75,115.6094,144.75,115.6094,156.75,127.6094,144.75,139.6094,78.75,139.6094,66.75,127.6094,78.75,115.6094" style="stroke: #A80036; stroke-width: 1.5;"/><text fill="#000000" font-family="sans-serif" font-size="11" lengthAdjust="spacingAndGlyphs" textLength="66" x="78.75" y="131.4175">FindProduct</text><text fill="#000000" font-family="sans-serif" font-size="11" lengthAdjust="spacingAndGlyphs" textLength="32" x="34.75" y="125.0151">found</text><text fill="#000000" font-family="sans-serif" font-size="11" lengthAdjust="spacingAndGlyphs" textLength="50" x="156.75" y="125.0151">notfound</text><rect fill="#FEFECE" filter="url(#fc5ckz43p58qv)" height="33.9688" rx="12.5" ry="12.5" style="stroke: #A80036; stroke-width: 1.5;" width="72" x="10" y="149.6094"/><text fill="#000000" font-family="sans-serif" font-size="12" lengthAdjust="spacingAndGlyphs" textLength="52" x="20" y="170.748">Success</text><rect fill="#FEFECE" filter="url(#fc5ckz43p58qv)" height="33.9688" rx="12.5" ry="12.5" style="stroke: #A80036; stroke-width: 1.5;" width="151" x="102" y="149.6094"/><text fill="#000000" font-family="sans-serif" font-size="12" lengthAdjust="spacingAndGlyphs" textLength="131" x="112" y="170.748">Product Doesnt Exist</text><ellipse cx="177.5" cy="213.5781" fill="#FFFFFF" filter="url(#fc5ckz43p58qv)" rx="10" ry="10" style="stroke: #000000; stroke-width: 1.5;"/><line style="stroke: #000000; stroke-width: 2.5;" x1="171.3128" x2="183.6872" y1="207.3909" y2="219.7653"/><line style="stroke: #000000; stroke-width: 2.5;" x1="183.6872" x2="171.3128" y1="207.3909" y2="219.7653"/><ellipse cx="111.75" cy="254.5781" fill="#FFFFFF" filter="url(#fc5ckz43p58qv)" rx="11" ry="11" style="stroke: #000000; stroke-width: 1.0;"/><ellipse cx="111.75" cy="254.5781" fill="#000000" rx="6" ry="6" style="stroke: #7F7F7F; stroke-width: 1.0;"/><line style="stroke: #A80036; stroke-width: 1.5;" x1="111.75" x2="111.75" y1="41.6406" y2="61.6406"/><polygon fill="#A80036" points="107.75,51.6406,111.75,61.6406,115.75,51.6406,111.75,55.6406" style="stroke: #A80036; stroke-width: 1.0;"/><line style="stroke: #A80036; stroke-width: 1.5;" x1="177.5" x2="177.5" y1="183.5781" y2="203.5781"/><polygon fill="#A80036" points="173.5,193.5781,177.5,203.5781,181.5,193.5781,177.5,197.5781" style="stroke: #A80036; stroke-width: 1.0;"/><line style="stroke: #A80036; stroke-width: 1.5;" x1="66.75" x2="46" y1="127.6094" y2="127.6094"/><line style="stroke: #A80036; stroke-width: 1.5;" x1="46" x2="46" y1="127.6094" y2="149.6094"/><polygon fill="#A80036" points="42,139.6094,46,149.6094,50,139.6094,46,143.6094" style="stroke: #A80036; stroke-width: 1.0;"/><line style="stroke: #A80036; stroke-width: 1.5;" x1="156.75" x2="177.5" y1="127.6094" y2="127.6094"/><line style="stroke: #A80036; stroke-width: 1.5;" x1="177.5" x2="177.5" y1="127.6094" y2="149.6094"/><polygon fill="#A80036" points="173.5,139.6094,177.5,149.6094,181.5,139.6094,177.5,143.6094" style="stroke: #A80036; stroke-width: 1.0;"/><line style="stroke: #A80036; stroke-width: 1.5;" x1="46" x2="46" y1="183.5781" y2="228.5781"/><line style="stroke: #A80036; stroke-width: 1.5;" x1="46" x2="111.75" y1="228.5781" y2="228.5781"/><line style="stroke: #A80036; stroke-width: 1.5;" x1="111.75" x2="111.75" y1="228.5781" y2="243.5781"/><polygon fill="#A80036" points="107.75,233.5781,111.75,243.5781,115.75,233.5781,111.75,237.5781" style="stroke: #A80036; stroke-width: 1.0;"/><line style="stroke: #A80036; stroke-width: 1.5;" x1="111.75" x2="111.75" y1="95.6094" y2="115.6094"/><polygon fill="#A80036" points="107.75,105.6094,111.75,115.6094,115.75,105.6094,111.75,109.6094" style="stroke: #A80036; stroke-width: 1.0;"/><!--MD5=[187c76458cea5173e62d2bab6162fb3d]
@startuml
start
header Delete Product
:Retrieve Product;
if (FindProduct) then (found)
  :Success;
else (notfound)
  :Product Doesnt Exist;
  
  end
endif

stop
@enduml

PlantUML version 1.2019.11(Sun Sep 22 10:02:15 UTC 2019)
(GPL source distribution)
Java Runtime: OpenJDK Runtime Environment
JVM: OpenJDK 64-Bit Server VM
Java Version: 1.8.0_222-heroku-b10
Operating System: Linux
Default Encoding: UTF-8
Language: en
Country: US
--></g></svg>