<?xml version="1.0" encoding="UTF-8" standalone="no"?><svg xmlns="http://www.w3.org/2000/svg" xmlns:xlink="http://www.w3.org/1999/xlink" contentScriptType="application/ecmascript" contentStyleType="text/css" height="264px" preserveAspectRatio="none" style="width:234px;height:264px;" version="1.1" viewBox="0 0 234 264" width="234px" zoomAndPan="magnify"><defs><filter height="300%" id="f1ch1oc624gfpr" width="300%" x="-1" y="-1"><feGaussianBlur result="blurOut" stdDeviation="2.0"/><feColorMatrix in="blurOut" result="blurOut2" type="matrix" values="0 0 0 0 0 0 0 0 0 0 0 0 0 0 0 0 0 0 .4 0"/><feOffset dx="4.0" dy="4.0" in="blurOut2" result="blurOut3"/><feBlend in="SourceGraphic" in2="blurOut3" mode="normal"/></filter></defs><g><ellipse cx="117.5" cy="20" fill="#000000" filter="url(#f1ch1oc624gfpr)" rx="10" ry="10" style="stroke: none; stroke-width: 1.0;"/><rect fill="#FEFECE" filter="url(#f1ch1oc624gfpr)" height="33.9688" rx="12.5" ry="12.5" style="stroke: #A80036; stroke-width: 1.5;" width="89" x="73" y="50"/><text fill="#000000" font-family="sans-serif" font-size="12" lengthAdjust="spacingAndGlyphs" textLength="69" x="83" y="71.1387">Login Page</text><polygon fill="#FEFECE" filter="url(#f1ch1oc624gfpr)" points="78,103.9688,157,103.9688,169,115.9688,157,127.9688,78,127.9688,66,115.9688,78,103.9688" style="stroke: #A80036; stroke-width: 1.5;"/><text fill="#000000" font-family="sans-serif" font-size="11" lengthAdjust="spacingAndGlyphs" textLength="79" x="78" y="119.7769">Validate Login</text><text fill="#000000" font-family="sans-serif" font-size="11" lengthAdjust="spacingAndGlyphs" textLength="28" x="38" y="113.3745">pass</text><text fill="#000000" font-family="sans-serif" font-size="11" lengthAdjust="spacingAndGlyphs" textLength="17" x="169" y="113.3745">fail</text><rect fill="#FEFECE" filter="url(#f1ch1oc624gfpr)" height="33.9688" rx="12.5" ry="12.5" style="stroke: #A80036; stroke-width: 1.5;" width="92" x="10" y="137.9688"/><text fill="#000000" font-family="sans-serif" font-size="12" lengthAdjust="spacingAndGlyphs" textLength="72" x="20" y="159.1074">Home Page</text><rect fill="#FEFECE" filter="url(#f1ch1oc624gfpr)" height="33.9688" rx="12.5" ry="12.5" style="stroke: #A80036; stroke-width: 1.5;" width="89" x="134.5" y="137.9688"/><text fill="#000000" font-family="sans-serif" font-size="12" lengthAdjust="spacingAndGlyphs" textLength="69" x="144.5" y="159.1074">Login Page</text><ellipse cx="179" cy="201.9375" fill="#FFFFFF" filter="url(#f1ch1oc624gfpr)" rx="10" ry="10" style="stroke: #000000; stroke-width: 1.5;"/><line style="stroke: #000000; stroke-width: 2.5;" x1="172.8128" x2="185.1872" y1="195.7503" y2="208.1247"/><line style="stroke: #000000; stroke-width: 2.5;" x1="185.1872" x2="172.8128" y1="195.7503" y2="208.1247"/><ellipse cx="117.5" cy="242.9375" fill="#FFFFFF" filter="url(#f1ch1oc624gfpr)" rx="11" ry="11" style="stroke: #000000; stroke-width: 1.0;"/><ellipse cx="117.5" cy="242.9375" fill="#000000" rx="6" ry="6" style="stroke: #7F7F7F; stroke-width: 1.0;"/><line style="stroke: #A80036; stroke-width: 1.5;" x1="117.5" x2="117.5" y1="30" y2="50"/><polygon fill="#A80036" points="113.5,40,117.5,50,121.5,40,117.5,44" style="stroke: #A80036; stroke-width: 1.0;"/><line style="stroke: #A80036; stroke-width: 1.5;" x1="179" x2="179" y1="171.9375" y2="191.9375"/><polygon fill="#A80036" points="175,181.9375,179,191.9375,183,181.9375,179,185.9375" style="stroke: #A80036; stroke-width: 1.0;"/><line style="stroke: #A80036; stroke-width: 1.5;" x1="66" x2="56" y1="115.9688" y2="115.9688"/><line style="stroke: #A80036; stroke-width: 1.5;" x1="56" x2="56" y1="115.9688" y2="137.9688"/><polygon fill="#A80036" points="52,127.9688,56,137.9688,60,127.9688,56,131.9688" style="stroke: #A80036; stroke-width: 1.0;"/><line style="stroke: #A80036; stroke-width: 1.5;" x1="169" x2="179" y1="115.9688" y2="115.9688"/><line style="stroke: #A80036; stroke-width: 1.5;" x1="179" x2="179" y1="115.9688" y2="137.9688"/><polygon fill="#A80036" points="175,127.9688,179,137.9688,183,127.9688,179,131.9688" style="stroke: #A80036; stroke-width: 1.0;"/><line style="stroke: #A80036; stroke-width: 1.5;" x1="56" x2="56" y1="171.9375" y2="216.9375"/><line style="stroke: #A80036; stroke-width: 1.5;" x1="56" x2="117.5" y1="216.9375" y2="216.9375"/><line style="stroke: #A80036; stroke-width: 1.5;" x1="117.5" x2="117.5" y1="216.9375" y2="231.9375"/><polygon fill="#A80036" points="113.5,221.9375,117.5,231.9375,121.5,221.9375,117.5,225.9375" style="stroke: #A80036; stroke-width: 1.0;"/><line style="stroke: #A80036; stroke-width: 1.5;" x1="117.5" x2="117.5" y1="83.9688" y2="103.9688"/><polygon fill="#A80036" points="113.5,93.9688,117.5,103.9688,121.5,93.9688,117.5,97.9688" style="stroke: #A80036; stroke-width: 1.0;"/><!--MD5=[a21bf370f0843eca53e0f2c0af5135eb]
@startuml
start

:Login Page;

if (Validate Login) then (pass)
  :Home Page;
  
else (fail)
  :Login Page;
  end
endif

stop
@enduml

PlantUML version 1.2019.11(Sun Sep 22 10:02:15 UTC 2019)
(GPL source distribution)
Java Runtime: OpenJDK Runtime Environment
JVM: OpenJDK 64-Bit Server VM
Java Version: 1.8.0_222-heroku-b10
Operating System: Linux
Default Encoding: UTF-8
Language: en
Country: US
--></g></svg>