<?xml version="1.0" encoding="UTF-8" standalone="no"?><svg xmlns="http://www.w3.org/2000/svg" xmlns:xlink="http://www.w3.org/1999/xlink" contentScriptType="application/ecmascript" contentStyleType="text/css" height="330px" preserveAspectRatio="none" style="width:291px;height:330px;" version="1.1" viewBox="0 0 291 330" width="291px" zoomAndPan="magnify"><defs><filter height="300%" id="fi941lqgdkufs" width="300%" x="-1" y="-1"><feGaussianBlur result="blurOut" stdDeviation="2.0"/><feColorMatrix in="blurOut" result="blurOut2" type="matrix" values="0 0 0 0 0 0 0 0 0 0 0 0 0 0 0 0 0 0 .4 0"/><feOffset dx="4.0" dy="4.0" in="blurOut2" result="blurOut3"/><feBlend in="SourceGraphic" in2="blurOut3" mode="normal"/></filter></defs><g><text fill="#888888" font-family="sans-serif" font-size="10" lengthAdjust="spacingAndGlyphs" textLength="107" x="172" y="19.2822">Product Update (Edit)</text><ellipse cx="160" cy="31.6406" fill="#000000" filter="url(#fi941lqgdkufs)" rx="10" ry="10" style="stroke: none; stroke-width: 1.0;"/><rect fill="#FEFECE" filter="url(#fi941lqgdkufs)" height="33.9688" rx="12.5" ry="12.5" style="stroke: #A80036; stroke-width: 1.5;" width="124" x="98" y="61.6406"/><text fill="#000000" font-family="sans-serif" font-size="12" lengthAdjust="spacingAndGlyphs" textLength="104" x="108" y="82.7793">Retrieve Product</text><rect fill="#FEFECE" filter="url(#fi941lqgdkufs)" height="33.9688" rx="12.5" ry="12.5" style="stroke: #A80036; stroke-width: 1.5;" width="97" x="111.5" y="115.6094"/><text fill="#000000" font-family="sans-serif" font-size="12" lengthAdjust="spacingAndGlyphs" textLength="77" x="121.5" y="136.748">Edit Product</text><polygon fill="#FEFECE" filter="url(#fi941lqgdkufs)" points="137.5,169.5781,182.5,169.5781,194.5,181.5781,182.5,193.5781,137.5,193.5781,125.5,181.5781,137.5,169.5781" style="stroke: #A80036; stroke-width: 1.5;"/><text fill="#000000" font-family="sans-serif" font-size="11" lengthAdjust="spacingAndGlyphs" textLength="45" x="137.5" y="185.3862">Validate</text><text fill="#000000" font-family="sans-serif" font-size="11" lengthAdjust="spacingAndGlyphs" textLength="28" x="97.5" y="178.9839">pass</text><text fill="#000000" font-family="sans-serif" font-size="11" lengthAdjust="spacingAndGlyphs" textLength="31" x="194.5" y="178.9839">failed</text><rect fill="#FEFECE" filter="url(#fi941lqgdkufs)" height="33.9688" rx="12.5" ry="12.5" style="stroke: #A80036; stroke-width: 1.5;" width="155" x="10" y="203.5781"/><text fill="#000000" font-family="sans-serif" font-size="12" lengthAdjust="spacingAndGlyphs" textLength="135" x="20" y="224.7168">Show updated record</text><rect fill="#FEFECE" filter="url(#fi941lqgdkufs)" height="33.9688" rx="12.5" ry="12.5" style="stroke: #A80036; stroke-width: 1.5;" width="95" x="185" y="203.5781"/><text fill="#000000" font-family="sans-serif" font-size="12" lengthAdjust="spacingAndGlyphs" textLength="75" x="195" y="224.7168">Show errors</text><ellipse cx="232.5" cy="267.5469" fill="#FFFFFF" filter="url(#fi941lqgdkufs)" rx="10" ry="10" style="stroke: #000000; stroke-width: 1.5;"/><line style="stroke: #000000; stroke-width: 2.5;" x1="226.3128" x2="238.6872" y1="261.3597" y2="273.7341"/><line style="stroke: #000000; stroke-width: 2.5;" x1="238.6872" x2="226.3128" y1="261.3597" y2="273.7341"/><ellipse cx="160" cy="308.5469" fill="#FFFFFF" filter="url(#fi941lqgdkufs)" rx="11" ry="11" style="stroke: #000000; stroke-width: 1.0;"/><ellipse cx="160" cy="308.5469" fill="#000000" rx="6" ry="6" style="stroke: #7F7F7F; stroke-width: 1.0;"/><line style="stroke: #A80036; stroke-width: 1.5;" x1="160" x2="160" y1="41.6406" y2="61.6406"/><polygon fill="#A80036" points="156,51.6406,160,61.6406,164,51.6406,160,55.6406" style="stroke: #A80036; stroke-width: 1.0;"/><line style="stroke: #A80036; stroke-width: 1.5;" x1="160" x2="160" y1="95.6094" y2="115.6094"/><polygon fill="#A80036" points="156,105.6094,160,115.6094,164,105.6094,160,109.6094" style="stroke: #A80036; stroke-width: 1.0;"/><line style="stroke: #A80036; stroke-width: 1.5;" x1="232.5" x2="232.5" y1="237.5469" y2="257.5469"/><polygon fill="#A80036" points="228.5,247.5469,232.5,257.5469,236.5,247.5469,232.5,251.5469" style="stroke: #A80036; stroke-width: 1.0;"/><line style="stroke: #A80036; stroke-width: 1.5;" x1="125.5" x2="87.5" y1="181.5781" y2="181.5781"/><line style="stroke: #A80036; stroke-width: 1.5;" x1="87.5" x2="87.5" y1="181.5781" y2="203.5781"/><polygon fill="#A80036" points="83.5,193.5781,87.5,203.5781,91.5,193.5781,87.5,197.5781" style="stroke: #A80036; stroke-width: 1.0;"/><line style="stroke: #A80036; stroke-width: 1.5;" x1="194.5" x2="232.5" y1="181.5781" y2="181.5781"/><line style="stroke: #A80036; stroke-width: 1.5;" x1="232.5" x2="232.5" y1="181.5781" y2="203.5781"/><polygon fill="#A80036" points="228.5,193.5781,232.5,203.5781,236.5,193.5781,232.5,197.5781" style="stroke: #A80036; stroke-width: 1.0;"/><line style="stroke: #A80036; stroke-width: 1.5;" x1="87.5" x2="87.5" y1="237.5469" y2="282.5469"/><line style="stroke: #A80036; stroke-width: 1.5;" x1="87.5" x2="160" y1="282.5469" y2="282.5469"/><line style="stroke: #A80036; stroke-width: 1.5;" x1="160" x2="160" y1="282.5469" y2="297.5469"/><polygon fill="#A80036" points="156,287.5469,160,297.5469,164,287.5469,160,291.5469" style="stroke: #A80036; stroke-width: 1.0;"/><line style="stroke: #A80036; stroke-width: 1.5;" x1="160" x2="160" y1="149.5781" y2="169.5781"/><polygon fill="#A80036" points="156,159.5781,160,169.5781,164,159.5781,160,163.5781" style="stroke: #A80036; stroke-width: 1.0;"/><!--MD5=[7a03a14016183b598a7330285246a61a]
@startuml
start
header Product Update (Edit)
:Retrieve Product;
:Edit Product;
if (Validate) then (pass)
  :Show updated record;
  
else (failed)
  :Show errors;
  
  end
endif

stop
@enduml

PlantUML version 1.2019.11(Sun Sep 22 10:02:15 UTC 2019)
(GPL source distribution)
Java Runtime: OpenJDK Runtime Environment
JVM: OpenJDK 64-Bit Server VM
Java Version: 1.8.0_222-heroku-b10
Operating System: Linux
Default Encoding: UTF-8
Language: en
Country: US
--></g></svg>